<svg id="_x31__px" height="512" viewBox="0 0 24 24" width="512" xmlns="http://www.w3.org/2000/svg"><path d="m18.677 11.994c-.973 0-2.101-.308-3.396-.922-1.445-.685-2.145-.659-2.604-.64-.372.016-.758.03-1.14-.352-.134-.134-.743-.864.453-2.061.597-.597 1.416-.769 2.128-.779l-4.146-4.146c-.566-.567-.565-1.491.003-2.06.275-.275.641-.428 1.029-.429h.004c.388 0 .752.151 1.026.426l1.723 1.723c.069-.137.16-.264.272-.375.276-.275.642-.427 1.03-.428h.003c.147 0 .292.022.429.064.072-.201.188-.386.344-.542.541-.543 1.409-.569 1.981-.076.068-.137.159-.265.273-.379.275-.275.642-.427 1.03-.428h.003c.388 0 .753.151 1.026.425l2.7 2.7c1.692 1.692 1.507 4.141-.45 6.106-.003.004-.007.007-.011.011-.006.005-.011.01-.017.016l-1.113 1.114c-.696.688-1.552 1.032-2.58 1.032zm-5.731-2.57c.546 0 1.385.09 2.762.744 2.983 1.414 4.194.727 4.847.085l1.126-1.126c.003-.003.006-.006.009-.009 1.192-1.204 2.013-3.135.462-4.688l-2.709-2.708c-.085-.085-.199-.132-.319-.132-.001 0-.001 0-.001 0-.123 0-.238.048-.325.135-.179.179-.18.468-.002.646l.675.675c.098.098.146.226.146.354s-.049.256-.146.354c-.195.195-.512.195-.707 0l-1.575-1.575c-.179-.179-.469-.177-.647.002-.087.087-.135.202-.135.325-.001.122.046.235.132.32l1.125 1.125c.098.098.146.226.146.354s-.049.256-.146.354c-.195.195-.512.195-.707 0l-1.575-1.575c-.085-.085-.199-.132-.319-.132-.001 0-.001 0-.001 0-.123 0-.238.048-.325.135-.087.086-.135.202-.135.324s.047.235.133.321l1.125 1.125c.098.098.146.226.146.354s-.049.256-.146.354c-.195.195-.512.195-.707 0l-3.825-3.825c-.087-.086-.245-.131-.321-.133-.122 0-.237.048-.324.136-.179.179-.18.468-.003.646l5.175 5.175c.162.162.192.412.076.608s-.352.288-.571.225c-.018-.005-1.811-.519-2.662.331-.387.387-.444.625-.434.678.043.03.052.039.374.028.09-.005.192-.01.308-.01z"/><path d="m19.5 17h-13c-.238 0-.443-.168-.49-.402l-2-10c-.03-.147.009-.299.103-.415s.238-.183.387-.183h6.75c.276 0 .5.224.5.5s-.224.5-.5.5h-6.14l1.8 9h12.18l.42-2.098c.055-.272.327-.445.588-.392.271.054.447.317.393.588l-.5 2.5c-.048.234-.253.402-.491.402z"/><path d="m6.499 17c-.233 0-.441-.164-.489-.402l-2.479-12.394c-.139-.699-.759-1.206-1.471-1.206h-.001l-1.558.002c-.001 0-.001 0-.001 0-.276 0-.5-.224-.5-.5s.224-.5.499-.5l1.558-.002h.003c1.188 0 2.219.845 2.452 2.01l2.478 12.394c.055.271-.121.534-.393.588-.032.007-.065.01-.098.01z"/><path d="m21.5 19h-17c-.827 0-1.5-.673-1.5-1.5s.673-1.5 1.5-1.5h2c.276 0 .5.224.5.5s-.224.5-.5.5h-2c-.275 0-.5.224-.5.5s.225.5.5.5h17c.276 0 .5.224.5.5s-.224.5-.5.5z"/><path d="m8 24c-1.103 0-2-.897-2-2s.897-2 2-2 2 .897 2 2-.897 2-2 2zm0-3c-.552 0-1 .449-1 1s.448 1 1 1 1-.449 1-1-.448-1-1-1z"/><path d="m17 24c-1.103 0-2-.897-2-2s.897-2 2-2 2 .897 2 2-.897 2-2 2zm0-3c-.552 0-1 .449-1 1s.448 1 1 1 1-.449 1-1-.448-1-1-1z"/></svg>